<svg t="1582113546877" class="icon" viewBox="0 0 1024 1024" version="1.1" xmlns="http://www.w3.org/2000/svg" p-id="1585" data-spm-anchor-id="a313x.7781069.0.i0" width="200" height="200"><path d="M506 349c-37.1 0-67.2-30.2-67.2-67.2v-52.5c0-37.1 30.2-67.2 67.2-67.2 37.1 0 67.2 30.2 67.2 67.2v52.5c0 37-30.2 67.2-67.2 67.2z m0-175c-30.5 0-55.2 24.8-55.2 55.2v52.5c0 30.5 24.8 55.2 55.2 55.2s55.2-24.8 55.2-55.2v-52.5c0-30.4-24.8-55.2-55.2-55.2z" fill="#840615" p-id="1586"></path><path d="M605.9 707.7v117.8S582.4 863 503.4 863s-101.2-37.5-101.2-37.5V707.7c0-6.8 5.5-12.2 12.2-12.2h179.2c6.9 0 12.3 5.4 12.3 12.2z" fill="#FFC500" p-id="1587"></path><path d="M605.9 831.5c-3.3 0-6-2.7-6-6V707.7c0-3.4-2.8-6.2-6.2-6.2H414.5c-3.4 0-6.2 2.8-6.2 6.2v117.8c0 3.3-2.7 6-6 6s-6-2.7-6-6V707.7c0-10.1 8.2-18.2 18.2-18.2h179.2c10.1 0 18.2 8.2 18.2 18.2v117.8c0 3.3-2.6 6-6 6z" fill="#840615" p-id="1588"></path><path d="M434.7 849.2V707.7c0-6.8 5.5-12.2 12.2-12.2h114.2c6.8 0 12.2 5.5 12.2 12.2v141.5" fill="#FFC603" p-id="1589"></path><path d="M573.5 855.2c-3.3 0-6-2.7-6-6V707.7c0-3.4-2.8-6.2-6.2-6.2H447c-3.4 0-6.2 2.8-6.2 6.2v141.5c0 3.3-2.7 6-6 6s-6-2.7-6-6V707.7c0-10.1 8.2-18.2 18.2-18.2h114.2c10.1 0 18.2 8.2 18.2 18.2v141.5c0.1 3.3-2.6 6-5.9 6z" fill="#840615" p-id="1590"></path><path d="M469.7 859.2V707.7c0-6.8 5.5-12.2 12.2-12.2h44.3c6.8 0 12.2 5.5 12.2 12.2v151.5" fill="#FFC603" p-id="1591"></path><path d="M538.5 865.2c-3.3 0-6-2.7-6-6V707.7c0-3.4-2.8-6.2-6.2-6.2H482c-3.4 0-6.2 2.8-6.2 6.2v151.5c0 3.3-2.7 6-6 6s-6-2.7-6-6V707.7c0-10.1 8.2-18.2 18.2-18.2h44.3c10.1 0 18.2 8.2 18.2 18.2v151.5c0 3.3-2.7 6-6 6z" fill="#840615" p-id="1592"></path><path d="M503.5 864.2V695.5" fill="#FFC603" p-id="1593"></path><path d="M503.5 870.2c-3.3 0-6-2.7-6-6V695.5c0-3.3 2.7-6 6-6s6 2.7 6 6v168.7c0 3.3-2.7 6-6 6z" fill="#840615" p-id="1594"></path><path d="M625.9 664.1c0 1.4 0 2.9-0.1 4.2-20.2 38.7-84.5 48.2-123.7 48.2-59.5 0-100.5-6.8-119.4-32.5-1.2-6-1.9-12.6-1.9-19.9 0-61.2 44.5-74.9 123.5-74.9 79.1 0 121.6 13.7 121.6 74.9z" fill="#FFC603" p-id="1595"></path><path d="M625.9 668.4c-1.9 57.6-44.7 70.7-121.8 70.7-69.5 0-112.1-10.6-121.2-55 18.9 25.6 59.8 32.5 119.4 32.5 39.1 0 103.3-9.6 123.6-48.2z" fill="#FFEB00" p-id="1596"></path><path d="M504 745.1c-68.9 0-116.8-10.2-127.1-59.7-1.3-6.4-2-13.5-2-21.2 0-31.7 11.6-53.2 35.3-65.7 19.9-10.5 49-15.2 94.2-15.2 45 0 73.7 4.7 93.2 15.2 23.1 12.5 34.3 33.9 34.3 65.7 0 1.6 0 3.1-0.1 4.5-1 29.9-12.8 50.2-36 62-19.5 9.9-47.8 14.4-91.8 14.4z m0.5-149.9c-86.7 0-117.5 18-117.5 68.9 0 6.8 0.6 13.1 1.7 18.7 4 19.3 14.9 32 34.3 39.8 18 7.2 43 10.4 81 10.4 42 0 68.6-4 86.4-13.1 19.2-9.8 28.6-26.2 29.4-51.8 0.1-1.3 0.1-2.6 0.1-4 0-27.3-8.9-44.8-28-55.1-17.6-9.5-44.6-13.8-87.4-13.8z" fill="#840615" p-id="1597"></path><path d="M620.6 262.2c3.6 8.9 5.4 19.5 5.4 32.1 0 61.2-42.9 74.9-121.9 74.9S381 355.6 381 294.3c0-43.8 22.8-63.3 64.7-70.8-6.6 4.4-25.1 17.2-29.6 27.1-2.7 5.8 10-5.1 61.7-7.7 41.9-2.1 102.8 1.8 142.8 19.3z" fill="#FFC500" p-id="1598"></path><path d="M504.5 219.4c62.7 0 102.4 8.6 116.1 42.8-40-17.5-100.8-21.4-142.8-19.3-51.7 2.6-64.3 13.6-61.7 7.7 4.5-9.9 23-22.7 29.6-27.1 16.6-3 36.3-4.1 58.8-4.1z" fill="#FFEB00" p-id="1599"></path><path d="M504.1 375.2c-45.2 0-74.1-4.7-94-15.2-23.6-12.5-35.1-34-35.1-65.7 0-23.1 6-40.5 18.3-53.2 11.3-11.7 28.1-19.3 51.3-23.5 15.9-2.9 34.9-4.2 59.9-4.2 61.8 0 106.2 7.9 121.7 46.5 3.9 9.7 5.8 21 5.8 34.4 0 31.7-11.3 53.2-34.5 65.7-19.6 10.6-48.4 15.2-93.4 15.2z m0.4-149.8c-24.2 0-42.5 1.3-57.7 4-20.7 3.7-35.3 10.3-44.8 20.1-10.1 10.4-14.9 25-14.9 44.8 0 27.2 9.1 44.7 28.7 55.1 18 9.5 45.2 13.8 88.3 13.8 42.9 0 70-4.2 87.7-13.8 19.2-10.3 28.2-27.9 28.2-55.1 0-11.8-1.6-21.6-5-29.9-11.3-28-42.3-39-110.5-39z" fill="#840615" p-id="1600"></path><path d="M803.4 466.4c0-14.2-1.3-27.7-3.8-40.4 4.2 16.5 6.4 34.2 6.4 53.2 0 149.1-134.9 220-301.2 220s-301.2-70.9-301.2-220 134.9-220 301.2-220h7.6c-153.3 2-276.4 68.9-276.4 207.1 0 140.4 127 207.2 283.7 207.2 156.7 0.1 283.7-66.6 283.7-207.1z" fill="#D8000F" p-id="1601"></path><path d="M799.6 426.1c2.5 12.7 3.8 26.2 3.8 40.4 0 140.4-127 207.2-283.7 207.2C363 673.6 236 606.9 236 466.4c0-138.2 123.1-205.1 276.4-207.1h0.1c141.7 1.9 259.1 55.9 287.1 166.8z" fill="#FF2B3F" p-id="1602"></path><path d="M504.7 705.2c-87.5 0-162.3-19-216.3-55.1-59.5-39.7-90.9-98.8-90.9-170.9 0-72.1 31.4-131.2 90.9-170.9 54-36 128.8-55.1 216.3-55.1 2.6 0 5.1 0 7.7 0.1h0.1c73.6 1 138.9 15.9 189 43.3 26.5 14.5 48.7 32.3 65.9 53.1 18.1 21.9 30.9 47.1 37.9 74.9 4.3 17.1 6.5 35.5 6.5 54.7 0 72.1-31.4 131.2-90.9 170.9-53.9 36-128.7 55-216.2 55z m0-439.9c-85.1 0-157.6 18.3-209.7 53.1-27.2 18.1-48.3 40.5-62.6 66.5-15.2 27.6-22.9 59.3-22.9 94.4 0 35.1 7.7 66.8 22.9 94.4 14.4 26 35.4 48.4 62.6 66.5 52.1 34.7 124.6 53.1 209.7 53.1s157.6-18.4 209.7-53.1c27.2-18.1 48.3-40.5 62.6-66.5 15.2-27.6 22.9-59.3 22.9-94.4 0-18.1-2.1-35.5-6.2-51.7-13-51.5-46-92.1-98-120.4-48.3-26.4-111.7-40.8-183.4-41.8h-0.2c-2.3-0.1-4.9-0.1-7.4-0.1z" fill="#840615" p-id="1603"></path><path d="M512.5 265.3h-0.1c-3.3 0-6-2.7-6-6s2.7-6 6-6h0.1c3.3 0 6 2.7 6 6s-2.7 6-6 6z" fill="#840615" p-id="1604"></path><path d="M718 473.7v5.5c0 149.1-95.5 220-213.4 220s-213.4-70.9-213.4-220 95.5-220 213.4-220h5.5C400.8 261.3 313 328.7 313 467.9c0 141.5 90.6 208.7 202.5 208.7 110.4 0.1 200.1-65.3 202.5-202.9z" fill="#D8000F" p-id="1605"></path><path d="M718 473.7c-2.4 137.6-92.1 203-202.4 203-111.8 0-202.5-67.3-202.5-208.7 0-139.2 87.7-206.5 197.1-208.7h0.2c113.7 2.2 205.3 71.5 207.6 214.4z" fill="#FF2B3F" p-id="1606"></path><path d="M504.7 705.2c-62.7 0-116.3-19.3-155-55.7-42.1-39.7-64.4-98.5-64.4-170.3 0-71.7 22.3-130.6 64.4-170.3 38.7-36.4 92.3-55.7 155-55.7 1.9 0 3.7 0 5.6 0.1h0.2c60.4 1.2 112.2 20.6 149.6 56.1 19.8 18.8 35.3 41.9 46 68.6 11.3 28.1 17.3 60.3 17.8 95.6 0 1.8 0.1 3.7 0.1 5.6 0 71.7-22.3 130.6-64.4 170.3-38.6 36.5-92.2 55.7-154.9 55.7z m0-439.9c-59.6 0-110.3 18.1-146.8 52.4-19.2 18.1-34.1 40.4-44.3 66.4-10.9 27.8-16.4 59.7-16.4 95.1 0 35.3 5.5 67.3 16.4 95.1 10.2 26 25.1 48.4 44.3 66.4 36.4 34.3 87.2 52.4 146.8 52.4S615 675 651.5 640.7c19.2-18.1 34.1-40.4 44.3-66.4 10.9-27.8 16.4-59.7 16.4-95.1v-5.4c-0.5-33.9-6.3-64.7-17-91.4-10.1-25.1-24.6-46.8-43.2-64.4-35.2-33.4-84.2-51.7-141.6-52.8h-0.2c-1.9 0.1-3.7 0.1-5.5 0.1z" fill="#840615" p-id="1607"></path><path d="M681.3 412.2c-2.6 0-4.9-1.7-5.7-4.2-5.1-16.6-12.2-31.9-21.2-45.5-1.5-2.3-3.1-4.6-4.7-6.7-1.6-2.2-3.1-4.1-4.5-5.8-1.1-1.4-2.2-2.7-3.2-3.9-2.2-2.5-1.9-6.3 0.6-8.5s6.3-1.9 8.5 0.6c1.1 1.3 2.3 2.7 3.5 4.2 1.5 1.9 3.1 3.9 4.8 6.2 1.7 2.3 3.4 4.8 5.1 7.3 9.6 14.5 17.2 30.9 22.7 48.6 1 3.2-0.8 6.5-4 7.5-0.7 0.1-1.3 0.2-1.9 0.2zM633.5 334.9c-1.4 0-2.9-0.5-4-1.6-1.5-1.4-3.2-2.8-4.8-4.2-2.5-2.1-2.9-5.9-0.7-8.5 2.1-2.5 5.9-2.9 8.5-0.7 1.8 1.5 3.5 3 5.2 4.5 2.5 2.2 2.6 6 0.4 8.5-1.4 1.4-3 2-4.6 2z" fill="#FFFFFF" p-id="1608"></path><path d="M510.4 265.3h-0.2c-3.3 0-6-2.7-6-6s2.7-6 6-6h0.2c3.3 0 6 2.7 6 6s-2.7 6-6 6z" fill="#840615" p-id="1609"></path><path d="M592.5 473.5v5.7c0 149.1-39.3 220-87.9 220s-87.9-70.9-87.9-220 39.3-220 87.9-220c1.4 0 2.9 0.1 4.3 0.2-42.1 4-75.5 71.4-75.5 208.7C433.4 609.7 469 677 513 677c43.4 0 78.7-65.6 79.5-203.5z" fill="#D8000F" p-id="1610"></path><path d="M592.5 473.5C591.7 611.4 556.4 677 513 677c-43.9 0-79.6-67.3-79.6-208.9 0-137.2 33.5-204.7 75.5-208.7 46 4.1 82.7 73.3 83.6 214.1z" fill="#FF2B3F" p-id="1611"></path><path d="M504.7 705.2c-19.3 0-46.8-10-67.6-57.7-17.2-39.2-26.2-97.4-26.2-168.3s9.1-129.1 26.2-168.3c20.8-47.7 48.3-57.7 67.6-57.7 1.6 0 3.2 0.1 4.8 0.2 18.2 1.6 44 13.2 63.6 59.4 16.4 38.6 24.9 92.7 25.4 160.7v5.7c0 70.9-9.1 129.1-26.2 168.3-20.8 47.7-48.2 57.7-67.6 57.7z m0-439.9c-22.6 0-42.2 17.5-56.6 50.5-16.5 37.7-25.2 94.3-25.2 163.5s8.7 125.8 25.2 163.5c14.4 33 34 50.5 56.6 50.5s42.2-17.5 56.6-50.5c16.5-37.7 25.2-94.3 25.2-163.5v-5.7c-1-148.5-41-204.9-78.1-208.2-1.2-0.1-2.4-0.1-3.7-0.1z" fill="#840615" p-id="1612"></path></svg>